ffmpeg started on 2016-12-07 at 03:15:43
Report written to "Output/x264/results/ffmpeg/sintelmedium15000k.log"
Command line:
Tools/ffmpeg/ffmpeg -benchmark -y -i Input/y4m/sintel.y4m -c:v libx264 -preset medium -b:v 15000k -an Output/x264/encoded/sintelmedium15000k.mkv
ffmpeg version N-82227-gdb23fde Copyright (c) 2000-2016 the FFmpeg developers
  built with gcc 5.4.0 (Ubuntu 5.4.0-6ubuntu1~16.04.2) 20160609
  configuration: --prefix=/home/jaroslav/ffmpeg_build --pkg-config-flags=--static --extra-cflags=-I/home/jaroslav/ffmpeg_build/include --extra-ldflags=-L/home/jaroslav/ffmpeg_build/lib --bindir=/home/jaroslav/bin --enable-gpl --enable-libass --enable-libfdk-aac --enable-libfreetype --enable-libmp3lame --enable-libopus --enable-libtheora --enable-libvorbis --enable-libvpx --enable-libx264 --enable-libx265 --enable-nvenc --enable-libmfx --enable-libxvid --enable-libgsm --enable-libopencore-amrnb --enable-version3 --enable-nonfree
  libavutil      55. 35.100 / 55. 35.100
  libavcodec     57. 66.101 / 57. 66.101
  libavformat    57. 57.100 / 57. 57.100
  libavdevice    57.  2.100 / 57.  2.100
  libavfilter     6. 66.100 /  6. 66.100
  libswscale      4.  3.100 /  4.  3.100
  libswresample   2.  4.100 /  2.  4.100
  libpostproc    54.  2.100 / 54.  2.100
Input #0, yuv4mpegpipe, from 'Input/y4m/sintel.y4m':
  Duration: 00:00:20.83, start: 0.000000, bitrate: 2057307 kb/s
    Stream #0:0: Video: rawvideo (I420 / 0x30323449), yuv420p(progressive), 4096x1744, SAR 1:1 DAR 256:109, 24 fps, 24 tbr, 24 tbn, 24 tbc
[libx264 @ 0x2c0a1c0] using SAR=1/1
[libx264 @ 0x2c0a1c0] using cpu capabilities: MMX2 SSE2Fast SSSE3 SSE4.2 AVX FMA3 AVX2 LZCNT BMI2
[libx264 @ 0x2c0a1c0] profile High, level 5.1
[libx264 @ 0x2c0a1c0] 264 - core 148 - H.264/MPEG-4 AVC codec - Copyleft 2003-2016 - http://www.videolan.org/x264.html - options: cabac=1 ref=3 deblock=1:0:0 analyse=0x3:0x113 me=hex subme=7 psy=1 psy_rd=1.00:0.00 mixed_ref=1 me_range=16 chroma_me=1 trellis=1 8x8dct=1 cqm=0 deadzone=21,11 fast_pskip=1 chroma_qp_offset=-2 threads=6 lookahead_threads=1 sliced_threads=0 nr=0 decimate=1 interlaced=0 bluray_compat=0 constrained_intra=0 bframes=3 b_pyramid=2 b_adapt=1 b_bias=0 direct=1 weightb=1 open_gop=0 weightp=2 keyint=250 keyint_min=24 scenecut=40 intra_refresh=0 rc_lookahead=40 rc=abr mbtree=1 bitrate=15000 ratetol=1.0 qcomp=0.60 qpmin=0 qpmax=69 qpstep=4 ip_ratio=1.40 aq=1:1.00
Output #0, matroska, to 'Output/x264/encoded/sintelmedium15000k.mkv':
  Metadata:
    encoder         : Lavf57.57.100
    Stream #0:0: Video: h264 (libx264) (H264 / 0x34363248), yuv420p, 4096x1744 [SAR 1:1 DAR 256:109], q=-1--1, 15000 kb/s, 24 fps, 1k tbn, 24 tbc
    Metadata:
      encoder         : Lavc57.66.101 libx264
    Side data:
      cpb: bitrate max/min/avg: 0/0/15000000 buffer size: 0 vbv_delay: -1
Stream mapping:
  Stream #0:0 -> #0:0 (rawvideo (native) -> h264 (libx264))
Press [q] to stop, [?] for help
frame=   10 fps=0.0 q=0.0 size=       0kB time=00:00:00.00 bitrate=N/A speed=   0x    frame=   19 fps= 18 q=0.0 size=       0kB time=00:00:00.00 bitrate=N/A speed=   0x    frame=   28 fps= 18 q=0.0 size=       0kB time=00:00:00.00 bitrate=N/A speed=   0x    frame=   31 fps= 15 q=0.0 size=       0kB time=00:00:00.00 bitrate=N/A speed=   0x    frame=   40 fps= 14 q=0.0 size=       0kB time=00:00:00.00 bitrate=N/A speed=   0x    frame=   47 fps=8.4 q=0.0 size=       0kB time=00:00:00.00 bitrate=N/A speed=   0x    frame=   48 fps=5.7 q=0.0 size=       0kB time=00:00:00.00 bitrate=N/A speed=   0x    frame=   53 fps=5.7 q=22.0 size=       1kB time=00:00:00.00 bitrate=5872.0kbits/s speed=0.000108x    frame=   55 fps=5.5 q=25.0 size=       1kB time=00:00:00.08 bitrate=  69.9kbits/s speed=0.00839x    frame=   58 fps=5.4 q=39.0 size=       1kB time=00:00:00.20 bitrate=  28.1kbits/s speed=0.0194x    frame=   61 fps=5.4 q=39.0 size=       1kB time=00:00:00.33 bitrate=  17.6kbits/s speed=0.0296x    frame=   66 fps=5.5 q=39.0 size=       1kB time=00:00:00.54 bitrate=  10.8kbits/s speed=0.0454x    frame=   69 fps=5.5 q=38.0 size=       1kB time=00:00:00.66 bitrate=   8.8kbits/s speed=0.0535x    frame=   74 fps=5.6 q=38.0 size=       1kB time=00:00:00.87 bitrate=   6.7kbits/s speed=0.0665x    frame=   78 fps=5.7 q=37.0 size=       1kB time=00:00:01.04 bitrate=   5.6kbits/s speed=0.0761x    frame=   82 fps=5.8 q=37.0 size=       1kB time=00:00:01.20 bitrate=   4.9kbits/s speed=0.0848x    frame=   86 fps=5.8 q=36.0 size=       1kB time=00:00:01.37 bitrate=   4.3kbits/s speed=0.0924x    frame=   91 fps=5.9 q=36.0 size=       1kB time=00:00:01.58 bitrate=   3.7kbits/s speed=0.102x    frame=   95 fps=5.9 q=35.0 size=    5130kB time=00:00:01.75 bitrate=24001.5kbits/s speed=0.109x    frame=   99 fps=6.0 q=35.0 size=    5130kB time=00:00:01.91 bitrate=21911.7kbits/s speed=0.116x    frame=  103 fps=6.0 q=35.0 size=    5130kB time=00:00:02.08 bitrate=20166.3kbits/s speed=0.121x    frame=  106 fps=5.9 q=35.0 size=    5130kB time=00:00:02.20 bitrate=19025.1kbits/s speed=0.124x    frame=  111 fps=5.9 q=35.0 size=    5130kB time=00:00:02.41 bitrate=17380.7kbits/s speed=0.129x    frame=  114 fps=5.9 q=35.0 size=    5130kB time=00:00:02.54 bitrate=16526.4kbits/s speed=0.133x    frame=  118 fps=5.9 q=34.0 size=    5130kB time=00:00:02.70 bitrate=15513.7kbits/s speed=0.137x    frame=  123 fps=6.0 q=34.0 size=    5130kB time=00:00:02.91 bitrate=14402.5kbits/s speed=0.142x    frame=  126 fps=6.0 q=34.0 size=    5130kB time=00:00:03.04 bitrate=13810.9kbits/s speed=0.144x    frame=  129 fps=6.0 q=34.0 size=    5130kB time=00:00:03.16 bitrate=13266.0kbits/s speed=0.146x    frame=  133 fps=6.0 q=33.0 size=    5130kB time=00:00:03.33 bitrate=12605.4kbits/s speed=0.15x    frame=  136 fps=6.0 q=33.0 size=    5130kB time=00:00:03.45 bitrate=12149.9kbits/s speed=0.152x    frame=  140 fps=6.0 q=33.0 size=    5130kB time=00:00:03.62 bitrate=11590.3kbits/s speed=0.155x    frame=  144 fps=6.0 q=33.0 size=    5130kB time=00:00:03.79 bitrate=11080.0kbits/s speed=0.157x    frame=  151 fps=6.0 q=33.0 size=    7866kB time=00:00:04.08 bitrate=15778.7kbits/s speed=0.164x    frame=  153 fps=6.0 q=33.0 size=    7866kB time=00:00:04.16 bitrate=15460.7kbits/s speed=0.163x    frame=  159 fps=6.1 q=32.0 size=    7866kB time=00:00:04.41 bitrate=14585.9kbits/s speed=0.169x    frame=  162 fps=6.1 q=32.0 size=    7866kB time=00:00:04.54 bitrate=14184.5kbits/s speed=0.17x    frame=  168 fps=6.1 q=32.0 size=    7866kB time=00:00:04.79 bitrate=13444.7kbits/s speed=0.175x    frame=  171 fps=6.1 q=32.0 size=    7866kB time=00:00:04.91 bitrate=13103.0kbits/s speed=0.176x    frame=  175 fps=6.1 q=32.0 size=    7866kB time=00:00:05.08 bitrate=12675.1kbits/s speed=0.178x    frame=  179 fps=6.1 q=32.0 size=    7866kB time=00:00:05.25 bitrate=12272.0kbits/s speed=0.18x    frame=  183 fps=6.1 q=32.0 size=    7866kB time=00:00:05.41 bitrate=11893.8kbits/s speed=0.181x    frame=  187 fps=6.1 q=32.0 size=    7866kB time=00:00:05.58 bitrate=11540.2kbits/s speed=0.183x    frame=  192 fps=6.2 q=32.0 size=    7866kB time=00:00:05.79 bitrate=11123.8kbits/s speed=0.186x    frame=  196 fps=6.2 q=32.0 size=    7866kB time=00:00:05.95 bitrate=10814.0kbits/s speed=0.188x    frame=  201 fps=6.2 q=32.0 size=    7866kB time=00:00:06.16 bitrate=10447.5kbits/s speed=0.191x    frame=  204 fps=6.2 q=31.0 size=    7866kB time=00:00:06.29 bitrate=10240.0kbits/s speed=0.192x    frame=  210 fps=6.3 q=31.0 size=   11696kB time=00:00:06.54 bitrate=14643.4kbits/s speed=0.196x    frame=  214 fps=6.3 q=31.0 size=   11696kB time=00:00:06.70 bitrate=14281.0kbits/s speed=0.197x    frame=  217 fps=6.3 q=31.0 size=   11696kB time=00:00:06.83 bitrate=14019.8kbits/s speed=0.198x    frame=  221 fps=6.3 q=31.0 size=   11696kB time=00:00:07.00 bitrate=13685.4kbits/s speed= 0.2x    frame=  224 fps=6.3 q=31.0 size=   11696kB time=00:00:07.12 bitrate=13445.3kbits/s speed= 0.2x    frame=  227 fps=6.3 q=31.0 size=   11696kB time=00:00:07.25 bitrate=13213.6kbits/s speed= 0.2x    frame=  232 fps=6.3 q=31.0 size=   11696kB time=00:00:07.45 bitrate=12845.1kbits/s speed=0.203x    frame=  239 fps=6.4 q=31.0 size=   13368kB time=00:00:07.75 bitrate=14128.7kbits/s speed=0.207x    frame=  241 fps=6.4 q=31.0 size=   13368kB time=00:00:07.83 bitrate=13979.0kbits/s speed=0.207x    frame=  246 fps=6.4 q=30.0 size=   13368kB time=00:00:08.04 bitrate=13615.8kbits/s speed=0.209x    frame=  249 fps=6.4 q=30.0 size=   13368kB time=00:00:08.16 bitrate=13407.4kbits/s speed=0.209x    frame=  253 fps=6.4 q=30.0 size=   13368kB time=00:00:08.33 bitrate=13140.3kbits/s speed=0.21x    frame=  257 fps=6.4 q=30.0 size=   13368kB time=00:00:08.50 bitrate=12882.2kbits/s speed=0.211x    frame=  262 fps=6.4 q=30.0 size=   13368kB time=00:00:08.70 bitrate=12574.5kbits/s speed=0.214x    frame=  266 fps=6.4 q=30.0 size=   13368kB time=00:00:08.87 bitrate=12337.9kbits/s speed=0.213x    frame=  271 fps=6.4 q=30.0 size=   13368kB time=00:00:09.08 bitrate=12055.4kbits/s speed=0.216x    frame=  276 fps=6.5 q=30.0 size=   13368kB time=00:00:09.29 bitrate=11784.3kbits/s speed=0.218x    frame=  279 fps=6.5 q=30.0 size=   13368kB time=00:00:09.41 bitrate=11627.9kbits/s speed=0.218x    frame=  284 fps=6.5 q=30.0 size=   13368kB time=00:00:09.62 bitrate=11376.6kbits/s speed=0.219x    frame=  290 fps=6.5 q=30.0 size=   13368kB time=00:00:09.87 bitrate=11088.7kbits/s speed=0.222x    frame=  294 fps=6.5 q=30.0 size=   13368kB time=00:00:10.04 bitrate=10904.3kbits/s speed=0.224x    frame=  299 fps=6.6 q=30.0 size=   13368kB time=00:00:10.25 bitrate=10683.0kbits/s speed=0.225x    frame=  303 fps=6.6 q=30.0 size=   13368kB time=00:00:10.41 bitrate=10511.8kbits/s speed=0.226x    frame=  310 fps=6.6 q=29.0 size=   13368kB time=00:00:10.70 bitrate=10226.1kbits/s speed=0.228x    frame=  312 fps=6.6 q=29.0 size=   13368kB time=00:00:10.79 bitrate=10146.5kbits/s speed=0.227x    frame=  317 fps=6.6 q=29.0 size=   18482kB time=00:00:11.00 bitrate=13763.1kbits/s speed=0.229x    frame=  322 fps=6.6 q=29.0 size=   18482kB time=00:00:11.20 bitrate=13507.7kbits/s speed=0.23x    frame=  328 fps=6.7 q=29.0 size=   18482kB time=00:00:11.45 bitrate=13213.0kbits/s speed=0.233x    frame=  332 fps=6.7 q=29.0 size=   18482kB time=00:00:11.62 bitrate=13023.2kbits/s speed=0.234x    frame=  338 fps=6.7 q=29.0 size=   18482kB time=00:00:11.87 bitrate=12749.1kbits/s speed=0.235x    frame=  343 fps=6.7 q=29.0 size=   18482kB time=00:00:12.08 bitrate=12529.6kbits/s speed=0.237x    frame=  350 fps=6.8 q=29.0 size=   18482kB time=00:00:12.37 bitrate=12234.0kbits/s speed=0.239x    frame=  358 fps=6.8 q=28.0 size=   18482kB time=00:00:12.70 bitrate=11913.4kbits/s speed=0.242x    frame=  366 fps=6.9 q=28.0 size=   18482kB time=00:00:13.04 bitrate=11608.4kbits/s speed=0.245x    frame=  374 fps=6.9 q=28.0 size=   18482kB time=00:00:13.37 bitrate=11319.4kbits/s speed=0.247x    frame=  381 fps=7.0 q=27.0 size=   18482kB time=00:00:13.66 bitrate=11077.5kbits/s speed=0.25x    frame=  386 fps=7.0 q=27.0 size=   18482kB time=00:00:13.87 bitrate=10911.5kbits/s speed=0.251x    frame=  392 fps=7.0 q=27.0 size=   18482kB time=00:00:14.12 bitrate=10718.4kbits/s speed=0.253x    frame=  398 fps=7.1 q=27.0 size=   18482kB time=00:00:14.37 bitrate=10532.0kbits/s speed=0.255x    frame=  404 fps=7.1 q=26.0 size=   18482kB time=00:00:14.62 bitrate=10352.0kbits/s speed=0.257x    frame=  410 fps=7.1 q=26.0 size=   18482kB time=00:00:14.87 bitrate=10178.0kbits/s speed=0.258x    frame=  417 fps=7.2 q=26.0 size=   23469kB time=00:00:15.16 bitrate=12675.5kbits/s speed=0.261x    frame=  419 fps=7.1 q=26.0 size=   23469kB time=00:00:15.25 bitrate=12606.5kbits/s speed=0.26x    frame=  426 fps=7.1 q=26.0 size=   23469kB time=00:00:15.54 bitrate=12369.7kbits/s speed=0.26x    frame=  431 fps=7.1 q=26.0 size=   23469kB time=00:00:15.75 bitrate=12206.3kbits/s speed=0.261x    frame=  436 fps=7.2 q=26.0 size=   23469kB time=00:00:15.95 bitrate=12047.2kbits/s speed=0.262x    frame=  442 fps=7.2 q=26.0 size=   23469kB time=00:00:16.20 bitrate=11861.4kbits/s speed=0.262x    frame=  447 fps=7.2 q=26.0 size=   23469kB time=00:00:16.41 bitrate=11710.4kbits/s speed=0.263x    frame=  451 fps=7.2 q=26.0 size=   23469kB time=00:00:16.58 bitrate=11593.2kbits/s speed=0.263x    frame=  457 fps=7.1 q=26.0 size=   23469kB time=00:00:16.83 bitrate=11421.0kbits/s speed=0.263x    frame=  464 fps=7.2 q=23.0 size=   23469kB time=00:00:17.12 bitrate=11226.3kbits/s speed=0.265x    frame=  471 fps=7.2 q=26.0 size=   27723kB time=00:00:17.41 bitrate=13038.5kbits/s speed=0.267x    frame=  474 fps=7.2 q=26.0 size=   27723kB time=00:00:17.54 bitrate=12945.6kbits/s speed=0.266x    frame=  478 fps=7.2 q=26.0 size=   27723kB time=00:00:17.70 bitrate=12824.3kbits/s speed=0.266x    frame=  484 fps=7.2 q=26.0 size=   27723kB time=00:00:17.95 bitrate=12645.7kbits/s speed=0.268x    frame=  489 fps=7.2 q=26.0 size=   27723kB time=00:00:18.16 bitrate=12500.3kbits/s speed=0.269x    frame=  494 fps=7.2 q=26.0 size=   27723kB time=00:00:18.37 bitrate=12358.8kbits/s speed=0.269x    frame=  500 fps=7.3 q=26.0 size=   27723kB time=00:00:18.62 bitrate=12192.9kbits/s speed=0.271x    frame=  500 fps=6.8 q=-1.0 Lsize=   34329kB time=00:00:20.70 bitrate=13579.9kbits/s speed=0.281x    
video:34324kB audio:0kB subtitle:0kB other streams:0kB global headers:0kB muxing overhead: 0.014422%
bench: utime=252.104s
bench: maxrss=1579564kB
[libx264 @ 0x2c0a1c0] frame I:8     Avg QP:21.01  size:233392
[libx264 @ 0x2c0a1c0] frame P:269   Avg QP:26.30  size: 83990
[libx264 @ 0x2c0a1c0] frame B:223   Avg QP:23.98  size: 47924
[libx264 @ 0x2c0a1c0] consecutive B-frames: 37.0%  8.4%  6.6% 48.0%
[libx264 @ 0x2c0a1c0] mb I  I16..4: 16.9% 75.2%  8.0%
[libx264 @ 0x2c0a1c0] mb P  I16..4: 16.2% 25.5%  0.8%  P16..4: 30.8%  5.0%  1.6%  0.0%  0.0%    skip:20.1%
[libx264 @ 0x2c0a1c0] mb B  I16..4:  1.4%  3.2%  0.4%  B16..8: 34.7%  3.7%  0.6%  direct: 2.1%  skip:53.8%  L0:43.6% L1:51.4% BI: 5.0%
[libx264 @ 0x2c0a1c0] final ratefactor: 23.26
[libx264 @ 0x2c0a1c0] 8x8 transform intra:61.3% inter:88.4%
[libx264 @ 0x2c0a1c0] coded y,uvDC,uvAC intra: 25.5% 33.6% 4.9% inter: 11.9% 12.7% 0.3%
[libx264 @ 0x2c0a1c0] i16 v,h,dc,p: 23% 29%  7% 41%
[libx264 @ 0x2c0a1c0] i8 v,h,dc,ddl,ddr,vr,hd,vl,hu: 24% 20% 27%  5%  5%  5%  6%  4%  5%
[libx264 @ 0x2c0a1c0] i4 v,h,dc,ddl,ddr,vr,hd,vl,hu: 22% 22% 10%  6% 10%  8% 11%  5%  5%
[libx264 @ 0x2c0a1c0] i8c dc,h,v,p: 64% 18% 16%  3%
[libx264 @ 0x2c0a1c0] Weighted P-Frames: Y:1.1% UV:0.7%
[libx264 @ 0x2c0a1c0] ref P L0: 68.8% 18.9%  8.8%  3.5%  0.0%
[libx264 @ 0x2c0a1c0] ref B L0: 92.2%  6.4%  1.4%
[libx264 @ 0x2c0a1c0] ref B L1: 97.4%  2.6%
[libx264 @ 0x2c0a1c0] kb/s:13496.63
